<svg width="32" height="10" viewBox="0 0 32 10" fill="none" xmlns="http://www.w3.org/2000/svg">
<mask id="path-1-inside-1_356_79" fill="white">
<path d="M32 8.31365C32 9.245 31.245 10 30.3137 10H28.5221C28.3059 10 28.1514 9.79136 28.1514 9.5752C28.1511 8.70519 27.4453 8 26.5752 8C25.7054 8.00026 25.0003 8.70535 25 9.5752C25 9.79136 24.8454 10 24.6293 10H2C0.895431 10 0 9.10457 0 8V2C0 0.89543 0.895431 0 2 0H24.5212C24.8042 0 25.0001 0.292229 25 0.575195C25 1.44526 25.7052 2.15111 26.5752 2.15137C27.4454 2.15137 28.1514 1.44542 28.1514 0.575195C28.1513 0.292229 28.3472 0 28.6301 0H30.3957C31.2817 0 32 0.718282 32 1.60433V8.31365Z"/>
</mask>
<path d="M28.1514 9.5752L29.1514 9.5752L29.1514 9.5749L28.1514 9.5752ZM26.5752 8L26.5752 7L26.5749 7L26.5752 8ZM25 9.5752L24 9.5749V9.5752H25ZM25 0.575195L24 0.574896V0.575195H25ZM26.5752 2.15137L26.5749 3.15137H26.5752V2.15137ZM28.1514 0.575195L29.1514 0.575195L29.1514 0.574896L28.1514 0.575195ZM30.3137 10V9H28.5221V10V11H30.3137V10ZM28.1514 9.5752L29.1514 9.5749C29.1509 8.15233 27.997 7 26.5752 7V8V9C26.8935 9 27.1513 9.25805 27.1514 9.57549L28.1514 9.5752ZM26.5752 8L26.5749 7C25.153 7.00043 24.0004 8.153 24 9.5749L25 9.5752L26 9.57549C26.0001 9.25771 26.2577 9.0001 26.5755 9L26.5752 8ZM24.6293 10V9H2V10V11H24.6293V10ZM0 8H1V2H0H-1V8H0ZM2 0V1H24.5212V0V-1H2V0ZM25 0.575195H24C24 1.99703 25.1523 3.15094 26.5749 3.15137L26.5752 2.15137L26.5755 1.15137C26.2581 1.15127 26 0.893482 26 0.575195H25ZM26.5752 2.15137V3.15137C27.9977 3.15137 29.1514 1.9977 29.1514 0.575195H28.1514H27.1514C27.1514 0.893133 26.8931 1.15137 26.5752 1.15137V2.15137ZM28.6301 0V1H30.3957V0V-1H28.6301V0ZM32 1.60433H31V8.31365H32H33V1.60433H32ZM30.3957 0V1C30.7294 1 31 1.27057 31 1.60433H32H33C33 0.165998 31.834 -1 30.3957 -1V0ZM24.5212 0V1C24.2894 1 24.1389 0.874501 24.0774 0.795436C24.0221 0.724306 24 0.650849 24 0.574896L25 0.575195L26 0.575495C26.0001 0.216576 25.8801 -0.144479 25.6561 -0.432465C25.4259 -0.728386 25.036 -1 24.5212 -1V0ZM0 2H1C1 1.44772 1.44772 1 2 1V0V-1C0.343146 -1 -1 0.343146 -1 2H0ZM2 10V9C1.44772 9 1 8.55228 1 8H0H-1C-1 9.65685 0.343146 11 2 11V10ZM28.1514 0.575195L29.1514 0.574896C29.1514 0.650848 29.1293 0.724305 29.074 0.795436C29.0125 0.874501 28.862 1 28.6301 1V0V-1C28.1154 -1 27.7254 -0.728387 27.4953 -0.432465C27.2713 -0.144478 27.1513 0.216576 27.1514 0.575495L28.1514 0.575195ZM28.5221 10V9C28.7588 9 28.9334 9.11934 29.0254 9.23034C29.111 9.33352 29.1514 9.45401 29.1514 9.5752H28.1514H27.1514C27.1514 10.1602 27.5865 11 28.5221 11V10ZM25 9.5752H24C24 9.45401 24.0404 9.33352 24.1259 9.23034C24.218 9.11934 24.3926 9 24.6293 9V10V11C25.5648 11 26 10.1602 26 9.5752H25ZM30.3137 10V11C31.7973 11 33 9.79728 33 8.31365H32H31C31 8.69271 30.6927 9 30.3137 9V10Z" fill="#EE145D" mask="url(#path-1-inside-1_356_79)"/>
<path d="M2.67383 7C2.53711 7 2.46875 6.92676 2.46875 6.78027V3.01855C2.46875 2.87207 2.53711 2.79883 2.67383 2.79883H5.1875C5.33398 2.79883 5.40723 2.8623 5.40723 2.98926V3.33496C5.40723 3.46191 5.33398 3.52539 5.1875 3.52539H3.32422V4.45703H5.03223C5.17871 4.45703 5.25195 4.52051 5.25195 4.64746V4.99316C5.25195 5.12012 5.17871 5.18359 5.03223 5.18359H3.32422V6.27344H5.28125C5.42773 6.27344 5.50098 6.33691 5.50098 6.46387V6.80957C5.50098 6.93652 5.42773 7 5.28125 7H2.67383ZM5.94629 4.15234C5.89746 4 5.92969 3.92383 6.04297 3.92383H6.56738C6.65918 3.92383 6.71777 3.97363 6.74316 4.07324L7.19727 5.79004C7.22266 5.88574 7.24316 5.98047 7.25879 6.07422C7.27637 6.16797 7.28711 6.24414 7.29102 6.30273H7.30859C7.3125 6.24414 7.32227 6.16797 7.33789 6.07422C7.35547 5.98047 7.37695 5.88574 7.40234 5.79004L7.85645 4.07324C7.88184 3.97363 7.94043 3.92383 8.03223 3.92383H8.55664C8.66992 3.92383 8.70215 4 8.65332 4.15234L7.80371 6.80371C7.7627 6.93457 7.69141 7 7.58984 7H7.00977C6.9082 7 6.83691 6.93457 6.7959 6.80371L5.94629 4.15234ZM8.9375 5.46191C8.9375 4.96777 9.06055 4.57812 9.30664 4.29297C9.55469 4.00781 9.9043 3.86523 10.3555 3.86523C10.8789 3.86523 11.2676 4 11.5215 4.26953C11.7754 4.53906 11.9023 4.97266 11.9023 5.57031C11.9023 5.6875 11.8477 5.74609 11.7383 5.74609H9.80469C9.83594 6.07031 9.91602 6.27441 10.0449 6.3584C10.1738 6.44238 10.3232 6.48438 10.4932 6.48438C10.6553 6.48438 10.7793 6.46289 10.8652 6.41992C10.9512 6.37695 11.0234 6.31836 11.082 6.24414C11.1484 6.1582 11.2305 6.14453 11.3281 6.20312L11.6211 6.38184C11.7363 6.45215 11.7529 6.53613 11.6709 6.63379C11.5518 6.77637 11.4121 6.88281 11.252 6.95312C11.0918 7.02344 10.8389 7.05859 10.4932 7.05859C9.93262 7.05859 9.5332 6.91602 9.29492 6.63086C9.05664 6.3457 8.9375 5.95605 8.9375 5.46191ZM9.80762 5.16016H11.082C11.082 4.94922 11.0293 4.77734 10.9238 4.64453C10.8184 4.50977 10.6504 4.44238 10.4199 4.44238C10.2363 4.44238 10.0908 4.50684 9.9834 4.63574C9.87598 4.7627 9.81738 4.9375 9.80762 5.16016ZM12.7168 7C12.5996 7 12.541 6.94141 12.541 6.82422V4.09961C12.541 3.98242 12.5996 3.92383 12.7168 3.92383H13.1797C13.2969 3.92383 13.3555 3.98242 13.3555 4.09961V4.26953H13.3672C13.457 4.11523 13.5713 4.00977 13.71 3.95312C13.8486 3.89453 14.0156 3.86523 14.2109 3.86523C14.5156 3.86523 14.7676 3.96094 14.9668 4.15234C15.166 4.34375 15.2656 4.69336 15.2656 5.20117V6.82422C15.2656 6.94141 15.207 7 15.0898 7H14.6211C14.5039 7 14.4453 6.94141 14.4453 6.82422V5.41211C14.4453 4.98633 14.416 4.71777 14.3574 4.60645C14.2988 4.49512 14.1729 4.43945 13.9795 4.43945C13.7744 4.43945 13.6201 4.51953 13.5166 4.67969C13.4131 4.83789 13.3613 5.16797 13.3613 5.66992V6.82422C13.3613 6.94141 13.3027 7 13.1855 7H12.7168ZM15.9541 4.50977C15.8389 4.50977 15.7812 4.46094 15.7812 4.36328V4.07031C15.7812 3.97266 15.8389 3.92383 15.9541 3.92383H16.1533V3.82129C16.1533 3.7334 16.1738 3.65332 16.2148 3.58105L16.4404 3.18555C16.4834 3.11133 16.5342 3.07422 16.5928 3.07422H16.7979C16.915 3.07422 16.9736 3.13281 16.9736 3.25V3.92383H17.4482C17.5635 3.92383 17.6211 3.97266 17.6211 4.07031V4.36328C17.6211 4.46094 17.5635 4.50977 17.4482 4.50977H16.9736V5.96289C16.9736 6.16211 16.9873 6.30566 17.0146 6.39355C17.0439 6.47949 17.1182 6.52246 17.2373 6.52246C17.2979 6.52246 17.3662 6.5127 17.4424 6.49316C17.5186 6.47168 17.5781 6.45117 17.6211 6.43164C17.6895 6.40039 17.7344 6.42285 17.7559 6.49902L17.8438 6.83301C17.8613 6.89941 17.8359 6.94824 17.7676 6.97949C17.7031 7.00879 17.6143 7.03516 17.501 7.05859C17.3896 7.08398 17.2773 7.09668 17.1641 7.09668C16.8848 7.09668 16.6465 7.03906 16.4492 6.92383C16.252 6.80859 16.1533 6.57129 16.1533 6.21191V4.50977H15.9541ZM18.6699 7C18.5332 7 18.4648 6.92676 18.4648 6.78027V3.01855C18.4648 2.87207 18.5332 2.79883 18.6699 2.79883H19.1152C19.252 2.79883 19.3203 2.87207 19.3203 3.01855V6.78027C19.3203 6.92676 19.252 7 19.1152 7H18.6699ZM20.3633 7C20.2461 7 20.1875 6.94141 20.1875 6.82422V4.09961C20.1875 3.98242 20.2461 3.92383 20.3633 3.92383H20.8262C20.9434 3.92383 21.002 3.98242 21.002 4.09961V4.26953H21.0137C21.1035 4.11523 21.2178 4.00977 21.3564 3.95312C21.4951 3.89453 21.6621 3.86523 21.8574 3.86523C22.1621 3.86523 22.4141 3.96094 22.6133 4.15234C22.8125 4.34375 22.9121 4.69336 22.9121 5.20117V6.82422C22.9121 6.94141 22.8535 7 22.7363 7H22.2676C22.1504 7 22.0918 6.94141 22.0918 6.82422V5.41211C22.0918 4.98633 22.0625 4.71777 22.0039 4.60645C21.9453 4.49512 21.8193 4.43945 21.626 4.43945C21.4209 4.43945 21.2666 4.51953 21.1631 4.67969C21.0596 4.83789 21.0078 5.16797 21.0078 5.66992V6.82422C21.0078 6.94141 20.9492 7 20.832 7H20.3633Z" fill="#EE145D"/>
<circle cx="26.5" cy="4.5" r="0.5" fill="#EE145D"/>
<circle cx="26.5" cy="6" r="0.5" fill="#EE145D"/>
</svg>
